<svg xmlns="http://www.w3.org/2000/svg" width="50" height="47" viewBox="0 0 50 47" fill="none">
  <ellipse cx="24.619" cy="23.5" rx="24.619" ry="23.5" fill="#36B37E"/>
  <path d="M16.9716 32.0206L16.9718 32.0208C17.6591 32.6887 18.5939 33.0681 19.5726 33.0714C20.5511 33.0748 21.4884 32.7021 22.1806 32.0391L16.9716 32.0206ZM16.9716 32.0206L12.3869 27.5699C11.4403 26.651 11.4605 25.1773 12.4365 24.2963L12.4365 24.2964L12.4429 24.2904C13.3755 23.4186 14.8724 23.4507 15.7727 24.3246L19.2269 27.6778L19.5752 28.0159L19.9235 27.6778L33.3846 14.6104C34.3211 13.7013 35.8339 13.7013 36.7704 14.6104L37.1186 14.2517L36.7704 14.6104L36.8541 14.6917C37.7816 15.5921 37.7818 17.0532 36.8365 17.9542L36.835 17.9556L22.1811 32.0386L16.9716 32.0206Z" fill="white" stroke="#36B37E"/>
</svg>