<svg width="15" height="11" viewBox="0 0 15 11" fill="none" xmlns="http://www.w3.org/2000/svg">
<path id="Vector" d="M14.6077 5.54083C14.5867 5.49159 14.0784 4.3206 12.9483 3.14711C11.4427 1.5835 9.54087 0.757141 7.44766 0.757141C5.35444 0.757141 3.45267 1.5835 1.94697 3.14711C0.816942 4.3206 0.306241 5.49346 0.287637 5.54083C0.26034 5.60459 0.246235 5.67359 0.246235 5.74336C0.246235 5.81314 0.26034 5.88214 0.287637 5.94591C0.308642 5.99514 0.816942 7.16551 1.94697 8.33899C3.45267 9.90198 5.35444 10.7283 7.44766 10.7283C9.54087 10.7283 11.4427 9.90198 12.9483 8.33899C14.0784 7.16551 14.5867 5.99514 14.6077 5.94591C14.635 5.88214 14.6491 5.81314 14.6491 5.74336C14.6491 5.67359 14.635 5.60459 14.6077 5.54083ZM7.44766 9.73122C5.60049 9.73122 3.98677 9.03386 2.65091 7.65908C2.10278 7.09303 1.63646 6.44755 1.26643 5.74274C1.63636 5.03787 2.1027 4.39238 2.65091 3.8264C3.98677 2.45162 5.60049 1.75426 7.44766 1.75426C9.29482 1.75426 10.9085 2.45162 12.2444 3.8264C12.7936 4.39224 13.2609 5.03773 13.6319 5.74274C13.1992 6.58157 11.3142 9.73122 7.44766 9.73122ZM7.44766 2.75138C6.87793 2.75138 6.32101 2.92682 5.8473 3.25552C5.37359 3.58421 5.00438 4.0514 4.78636 4.598C4.56833 5.1446 4.51129 5.74606 4.62244 6.32633C4.73358 6.90659 5.00793 7.4396 5.41079 7.85795C5.81364 8.2763 6.32691 8.5612 6.88569 8.67662C7.44446 8.79205 8.02365 8.73281 8.55 8.5064C9.07636 8.27999 9.52624 7.89658 9.84277 7.40465C10.1593 6.91273 10.3282 6.33438 10.3282 5.74274C10.3274 4.94964 10.0237 4.18925 9.48365 3.62844C8.94361 3.06763 8.21139 2.75221 7.44766 2.75138ZM7.44766 7.73698C7.06784 7.73698 6.69656 7.62002 6.38075 7.40089C6.06495 7.18176 5.81881 6.8703 5.67346 6.5059C5.52811 6.1415 5.49008 5.74053 5.56418 5.35369C5.63827 4.96684 5.82117 4.6115 6.08974 4.3326C6.35831 4.0537 6.70049 3.86377 7.07301 3.78682C7.44553 3.70987 7.83165 3.74936 8.18256 3.9003C8.53346 4.05124 8.83338 4.30685 9.0444 4.6348C9.25541 4.96275 9.36804 5.34832 9.36804 5.74274C9.36804 6.27165 9.16571 6.77889 8.80557 7.15288C8.44543 7.52688 7.95697 7.73698 7.44766 7.73698Z" fill="#4D4E51"/>
</svg>
