<svg xmlns="http://www.w3.org/2000/svg" width="14" height="14" viewBox="0 0 14 14" fill="none">
  <path d="M0.97066 0.0465269C0.853082 0.0820742 0.781988 0.139496 0.459332 0.459418C0.125738 0.795746 0.0819879 0.850433 0.0437067 0.981684C-0.0137152 1.18129 -0.0109808 1.30707 0.0573785 1.49575C0.112066 1.64614 0.235113 1.77465 2.78628 4.32582L5.45504 7.00004L2.78628 9.67426C0.235113 12.2254 0.112066 12.3539 0.0573785 12.5043C-0.0109808 12.693 -0.0137152 12.8188 0.0437067 13.0184C0.0819879 13.1497 0.125738 13.2043 0.459332 13.5407C0.79566 13.8743 0.850347 13.918 0.981597 13.9563C1.18121 14.0137 1.30699 14.011 1.49566 13.9426C1.64605 13.8879 1.77457 13.7649 4.32847 11.2137L6.99996 8.54496L9.67418 11.2137C12.2253 13.7649 12.3539 13.8879 12.5043 13.9426C12.6929 14.011 12.8187 14.0137 13.0183 13.9563C13.1496 13.918 13.2043 13.8743 13.5406 13.5407C13.8742 13.2043 13.9179 13.1497 13.9562 13.0184C14.0136 12.8188 14.0109 12.693 13.9425 12.5043C13.8878 12.3539 13.7648 12.2254 11.2136 9.67426L8.54488 7.00004L11.2136 4.32856C13.7648 1.77465 13.8878 1.64614 13.9425 1.49575C14.0109 1.30707 14.0136 1.18129 13.9562 0.981684C13.9179 0.850433 13.8742 0.795746 13.5406 0.459418C13.2043 0.125824 13.1496 0.0820742 13.0183 0.0437927C12.8187 -0.013629 12.6929 -0.0108948 12.5043 0.0574646C12.3539 0.112152 12.2253 0.235199 9.67418 2.78637L6.99996 5.45512L4.32847 2.78637C1.77457 0.235199 1.64605 0.112152 1.49566 0.0574646C1.31246 -0.00816059 1.16207 -0.013629 0.97066 0.0465269Z" fill="black"/>
</svg>